<mxfile host="Electron" agent="Mozilla/5.0 (Windows NT 10.0; Win64; x64) AppleWebKit/537.36 (KHTML, like Gecko) draw.io/24.7.17 Chrome/128.0.6613.36 Electron/32.0.1 Safari/537.36" version="24.7.17">
  <diagram name="Page-1" id="WKOngSZHzuvmd_2RqOWL">
    <mxGraphModel dx="4381" dy="1012" grid="1" gridSize="10" guides="1" tooltips="1" connect="1" arrows="1" fold="1" page="1" pageScale="1" pageWidth="2339" pageHeight="3300" math="0" shadow="0">
      <root>
        <mxCell id="0" />
        <mxCell id="1" parent="0" />
        <mxCell id="QJltSQwK1lFXKoooa8Jk-1" value="Maître d&#39;hôtel" style="shape=umlActor;verticalLabelPosition=bottom;verticalAlign=top;html=1;outlineConnect=0;fillColor=#A9C4EB;" parent="1" vertex="1">
          <mxGeometry x="-2310" y="340" width="30" height="60" as="geometry" />
        </mxCell>
        <mxCell id="QJltSQwK1lFXKoooa8Jk-5" value="" style="ellipse;whiteSpace=wrap;html=1;fillColor=#A9C4EB;" parent="1" vertex="1">
          <mxGeometry x="-2170" y="110" width="120" height="80" as="geometry" />
        </mxCell>
        <mxCell id="QJltSQwK1lFXKoooa8Jk-6" value="Accueille le client" style="text;html=1;align=center;verticalAlign=middle;whiteSpace=wrap;rounded=0;fillColor=#A9C4EB;" parent="1" vertex="1">
          <mxGeometry x="-2140" y="135" width="60" height="30" as="geometry" />
        </mxCell>
        <mxCell id="QJltSQwK1lFXKoooa8Jk-7" value="" style="ellipse;whiteSpace=wrap;html=1;fillColor=#A9C4EB;" parent="1" vertex="1">
          <mxGeometry x="-2170" y="200" width="120" height="80" as="geometry" />
        </mxCell>
        <mxCell id="QJltSQwK1lFXKoooa8Jk-8" value="Met à jour les cartes" style="text;html=1;align=center;verticalAlign=middle;whiteSpace=wrap;rounded=0;fillColor=#A9C4EB;" parent="1" vertex="1">
          <mxGeometry x="-2140" y="225" width="60" height="30" as="geometry" />
        </mxCell>
        <mxCell id="QJltSQwK1lFXKoooa8Jk-9" value="" style="ellipse;whiteSpace=wrap;html=1;fillColor=#A9C4EB;" parent="1" vertex="1">
          <mxGeometry x="-1940" y="330" width="120" height="80" as="geometry" />
        </mxCell>
        <mxCell id="QJltSQwK1lFXKoooa8Jk-10" value="" style="ellipse;whiteSpace=wrap;html=1;fillColor=#A9C4EB;" parent="1" vertex="1">
          <mxGeometry x="-2170" y="290" width="120" height="80" as="geometry" />
        </mxCell>
        <mxCell id="QJltSQwK1lFXKoooa8Jk-11" value="reservations" style="text;html=1;align=center;verticalAlign=middle;whiteSpace=wrap;rounded=0;fillColor=#A9C4EB;" parent="1" vertex="1">
          <mxGeometry x="-2140" y="315" width="60" height="30" as="geometry" />
        </mxCell>
        <mxCell id="QJltSQwK1lFXKoooa8Jk-13" value="" style="endArrow=none;html=1;rounded=0;entryX=0;entryY=0.5;entryDx=0;entryDy=0;fillColor=#A9C4EB;" parent="1" target="QJltSQwK1lFXKoooa8Jk-5" edge="1">
          <mxGeometry width="50" height="50" relative="1" as="geometry">
            <mxPoint x="-2270" y="350" as="sourcePoint" />
            <mxPoint x="-2220" y="300" as="targetPoint" />
          </mxGeometry>
        </mxCell>
        <mxCell id="QJltSQwK1lFXKoooa8Jk-14" value="" style="endArrow=none;html=1;rounded=0;entryX=0.044;entryY=0.727;entryDx=0;entryDy=0;entryPerimeter=0;fillColor=#A9C4EB;" parent="1" target="QJltSQwK1lFXKoooa8Jk-7" edge="1">
          <mxGeometry width="50" height="50" relative="1" as="geometry">
            <mxPoint x="-2270" y="350" as="sourcePoint" />
            <mxPoint x="-2220" y="300" as="targetPoint" />
          </mxGeometry>
        </mxCell>
        <mxCell id="QJltSQwK1lFXKoooa8Jk-15" value="" style="endArrow=none;html=1;rounded=0;entryX=0;entryY=0.5;entryDx=0;entryDy=0;fillColor=#A9C4EB;" parent="1" target="QJltSQwK1lFXKoooa8Jk-10" edge="1">
          <mxGeometry width="50" height="50" relative="1" as="geometry">
            <mxPoint x="-2270" y="350" as="sourcePoint" />
            <mxPoint x="-2220" y="300" as="targetPoint" />
          </mxGeometry>
        </mxCell>
        <mxCell id="QJltSQwK1lFXKoooa8Jk-16" value="" style="line;strokeWidth=1;fillColor=#A9C4EB;align=left;verticalAlign=middle;spacingTop=-1;spacingLeft=3;spacingRight=3;rotatable=0;labelPosition=right;points=[];portConstraint=eastwest;strokeColor=inherit;" parent="1" vertex="1">
          <mxGeometry x="-2260" y="320" width="330" height="130" as="geometry" />
        </mxCell>
        <mxCell id="QJltSQwK1lFXKoooa8Jk-17" value="Payer" style="text;html=1;align=center;verticalAlign=middle;whiteSpace=wrap;rounded=0;fillColor=#A9C4EB;" parent="1" vertex="1">
          <mxGeometry x="-1910" y="355" width="60" height="30" as="geometry" />
        </mxCell>
        <mxCell id="QJltSQwK1lFXKoooa8Jk-18" value="Préparer paiement" style="text;html=1;align=center;verticalAlign=middle;whiteSpace=wrap;rounded=0;fillColor=#FFFFFF;" parent="1" vertex="1">
          <mxGeometry x="-2110" y="381" width="60" height="30" as="geometry" />
        </mxCell>
        <mxCell id="QJltSQwK1lFXKoooa8Jk-19" value="" style="endArrow=open;endFill=1;endSize=12;html=1;rounded=0;exitX=0.5;exitY=0;exitDx=0;exitDy=0;dashed=1;fillColor=#A9C4EB;" parent="1" source="QJltSQwK1lFXKoooa8Jk-5" edge="1">
          <mxGeometry width="160" relative="1" as="geometry">
            <mxPoint x="-2110" y="90" as="sourcePoint" />
            <mxPoint x="-1950" y="70" as="targetPoint" />
            <Array as="points">
              <mxPoint x="-2110" y="70" />
              <mxPoint x="-2030" y="70" />
            </Array>
          </mxGeometry>
        </mxCell>
        <mxCell id="QJltSQwK1lFXKoooa8Jk-21" value="&amp;lt;&amp;lt;Include&amp;gt;&amp;gt;" style="text;html=1;align=center;verticalAlign=middle;resizable=0;points=[];autosize=1;strokeColor=none;fillColor=#FFFFFF;" parent="1" vertex="1">
          <mxGeometry x="-2080" y="38" width="90" height="30" as="geometry" />
        </mxCell>
        <mxCell id="QJltSQwK1lFXKoooa8Jk-22" value="" style="ellipse;whiteSpace=wrap;html=1;fillColor=#A9C4EB;" parent="1" vertex="1">
          <mxGeometry x="-1950" y="30" width="120" height="80" as="geometry" />
        </mxCell>
        <mxCell id="QJltSQwK1lFXKoooa8Jk-23" value="Assigner table" style="text;html=1;align=center;verticalAlign=middle;whiteSpace=wrap;rounded=0;fillColor=#A9C4EB;" parent="1" vertex="1">
          <mxGeometry x="-1920" y="55" width="60" height="30" as="geometry" />
        </mxCell>
        <mxCell id="QJltSQwK1lFXKoooa8Jk-24" value="" style="ellipse;whiteSpace=wrap;html=1;fillColor=#A9C4EB;" parent="1" vertex="1">
          <mxGeometry x="-1790" y="110" width="120" height="80" as="geometry" />
        </mxCell>
        <mxCell id="QJltSQwK1lFXKoooa8Jk-25" value="Vérifier réservation" style="text;html=1;align=center;verticalAlign=middle;whiteSpace=wrap;rounded=0;fillColor=#A9C4EB;" parent="1" vertex="1">
          <mxGeometry x="-1760" y="135" width="60" height="30" as="geometry" />
        </mxCell>
        <mxCell id="QJltSQwK1lFXKoooa8Jk-26" value="" style="endArrow=classic;html=1;rounded=0;exitX=1;exitY=0.5;exitDx=0;exitDy=0;entryX=0;entryY=0.5;entryDx=0;entryDy=0;dashed=1;fillColor=#A9C4EB;" parent="1" source="QJltSQwK1lFXKoooa8Jk-5" target="QJltSQwK1lFXKoooa8Jk-24" edge="1">
          <mxGeometry width="50" height="50" relative="1" as="geometry">
            <mxPoint x="-1980" y="210" as="sourcePoint" />
            <mxPoint x="-1930" y="160" as="targetPoint" />
          </mxGeometry>
        </mxCell>
        <mxCell id="QJltSQwK1lFXKoooa8Jk-27" value="&amp;lt;&amp;lt;Include&amp;gt;&amp;gt;" style="text;html=1;align=center;verticalAlign=middle;resizable=0;points=[];autosize=1;strokeColor=none;fillColor=#FFFFFF;" parent="1" vertex="1">
          <mxGeometry x="-1980" y="120" width="90" height="30" as="geometry" />
        </mxCell>
        <mxCell id="QJltSQwK1lFXKoooa8Jk-28" value="" style="ellipse;whiteSpace=wrap;html=1;fillColor=#A9C4EB;" parent="1" vertex="1">
          <mxGeometry x="-1920" y="200" width="120" height="80" as="geometry" />
        </mxCell>
        <mxCell id="QJltSQwK1lFXKoooa8Jk-29" value="Vérifier disponibilité" style="text;html=1;align=center;verticalAlign=middle;whiteSpace=wrap;rounded=0;fillColor=#A9C4EB;" parent="1" vertex="1">
          <mxGeometry x="-1890" y="220" width="60" height="30" as="geometry" />
        </mxCell>
        <mxCell id="QJltSQwK1lFXKoooa8Jk-30" value="" style="endArrow=classic;html=1;rounded=0;exitX=1;exitY=0.5;exitDx=0;exitDy=0;dashed=1;fillColor=#A9C4EB;" parent="1" edge="1">
          <mxGeometry width="50" height="50" relative="1" as="geometry">
            <mxPoint x="-2050" y="239.33" as="sourcePoint" />
            <mxPoint x="-1920" y="240" as="targetPoint" />
          </mxGeometry>
        </mxCell>
        <mxCell id="QJltSQwK1lFXKoooa8Jk-31" value="&amp;lt;&amp;lt;Include&amp;gt;&amp;gt;" style="text;html=1;align=center;verticalAlign=middle;resizable=0;points=[];autosize=1;strokeColor=none;fillColor=#FFFFFF;" parent="1" vertex="1">
          <mxGeometry x="-2030" y="210" width="90" height="30" as="geometry" />
        </mxCell>
        <mxCell id="QJltSQwK1lFXKoooa8Jk-32" value="Client" style="shape=umlActor;verticalLabelPosition=bottom;verticalAlign=top;html=1;outlineConnect=0;fillColor=#A9C4EB;" parent="1" vertex="1">
          <mxGeometry x="-1280" y="190" width="30" height="60" as="geometry" />
        </mxCell>
        <mxCell id="QJltSQwK1lFXKoooa8Jk-33" value="" style="ellipse;whiteSpace=wrap;html=1;fillColor=#A9C4EB;" parent="1" vertex="1">
          <mxGeometry x="-1520" y="145" width="120" height="80" as="geometry" />
        </mxCell>
        <mxCell id="QJltSQwK1lFXKoooa8Jk-34" value="Manger" style="text;html=1;align=center;verticalAlign=middle;whiteSpace=wrap;rounded=0;fillColor=#A9C4EB;" parent="1" vertex="1">
          <mxGeometry x="-1490" y="170" width="60" height="30" as="geometry" />
        </mxCell>
        <mxCell id="QJltSQwK1lFXKoooa8Jk-35" value="" style="endArrow=none;html=1;rounded=0;exitX=1;exitY=0.5;exitDx=0;exitDy=0;fillColor=#A9C4EB;" parent="1" source="QJltSQwK1lFXKoooa8Jk-33" target="QJltSQwK1lFXKoooa8Jk-32" edge="1">
          <mxGeometry width="50" height="50" relative="1" as="geometry">
            <mxPoint x="-1400" y="320" as="sourcePoint" />
            <mxPoint x="-1350" y="270" as="targetPoint" />
          </mxGeometry>
        </mxCell>
        <mxCell id="QJltSQwK1lFXKoooa8Jk-36" value="" style="endArrow=none;html=1;rounded=0;exitX=1;exitY=0.5;exitDx=0;exitDy=0;fillColor=#A9C4EB;" parent="1" source="QJltSQwK1lFXKoooa8Jk-28" edge="1">
          <mxGeometry width="50" height="50" relative="1" as="geometry">
            <mxPoint x="-1710" y="210" as="sourcePoint" />
            <mxPoint x="-1290" y="240" as="targetPoint" />
            <Array as="points">
              <mxPoint x="-1340" y="240" />
            </Array>
          </mxGeometry>
        </mxCell>
        <mxCell id="QJltSQwK1lFXKoooa8Jk-37" value="Réserver table" style="text;html=1;align=center;verticalAlign=middle;whiteSpace=wrap;rounded=0;fillColor=#FFFFFF;" parent="1" vertex="1">
          <mxGeometry x="-1600" y="211" width="60" height="30" as="geometry" />
        </mxCell>
        <mxCell id="QJltSQwK1lFXKoooa8Jk-38" value="" style="endArrow=none;html=1;rounded=0;exitX=0.99;exitY=0.395;exitDx=0;exitDy=0;exitPerimeter=0;entryX=0;entryY=1;entryDx=0;entryDy=0;entryPerimeter=0;fillColor=#A9C4EB;" parent="1" source="QJltSQwK1lFXKoooa8Jk-9" target="QJltSQwK1lFXKoooa8Jk-32" edge="1">
          <mxGeometry width="50" height="50" relative="1" as="geometry">
            <mxPoint x="-1570" y="330" as="sourcePoint" />
            <mxPoint x="-1520" y="280" as="targetPoint" />
          </mxGeometry>
        </mxCell>
        <mxCell id="QJltSQwK1lFXKoooa8Jk-39" value="Paiement" style="text;html=1;align=center;verticalAlign=middle;whiteSpace=wrap;rounded=0;fillColor=#FFFFFF;" parent="1" vertex="1">
          <mxGeometry x="-1670" y="291" width="60" height="30" as="geometry" />
        </mxCell>
        <mxCell id="QJltSQwK1lFXKoooa8Jk-40" value="Chef de rang" style="shape=umlActor;verticalLabelPosition=bottom;verticalAlign=top;html=1;outlineConnect=0;fillColor=#A9C4EB;" parent="1" vertex="1">
          <mxGeometry x="-2309" y="610" width="30" height="60" as="geometry" />
        </mxCell>
        <mxCell id="QJltSQwK1lFXKoooa8Jk-41" value="" style="ellipse;whiteSpace=wrap;html=1;fillColor=#A9C4EB;" parent="1" vertex="1">
          <mxGeometry x="-2200" y="450" width="120" height="80" as="geometry" />
        </mxCell>
        <mxCell id="QJltSQwK1lFXKoooa8Jk-42" value="Présenter carte" style="text;html=1;align=center;verticalAlign=middle;whiteSpace=wrap;rounded=0;fillColor=#A9C4EB;" parent="1" vertex="1">
          <mxGeometry x="-2170" y="475" width="60" height="30" as="geometry" />
        </mxCell>
        <mxCell id="QJltSQwK1lFXKoooa8Jk-43" value="" style="ellipse;whiteSpace=wrap;html=1;fillColor=#A9C4EB;" parent="1" vertex="1">
          <mxGeometry x="-1970" y="450" width="120" height="80" as="geometry" />
        </mxCell>
        <mxCell id="QJltSQwK1lFXKoooa8Jk-44" value="Prendre carte" style="text;html=1;align=center;verticalAlign=middle;whiteSpace=wrap;rounded=0;fillColor=#A9C4EB;" parent="1" vertex="1">
          <mxGeometry x="-1940" y="476" width="60" height="30" as="geometry" />
        </mxCell>
        <mxCell id="QJltSQwK1lFXKoooa8Jk-45" value="" style="endArrow=none;html=1;rounded=0;entryX=0.5;entryY=0;entryDx=0;entryDy=0;entryPerimeter=0;fillColor=#A9C4EB;" parent="1" target="QJltSQwK1lFXKoooa8Jk-40" edge="1">
          <mxGeometry width="50" height="50" relative="1" as="geometry">
            <mxPoint x="-2190" y="510" as="sourcePoint" />
            <mxPoint x="-2290" y="580" as="targetPoint" />
          </mxGeometry>
        </mxCell>
        <mxCell id="QJltSQwK1lFXKoooa8Jk-46" value="" style="ellipse;whiteSpace=wrap;html=1;fillColor=#A9C4EB;" parent="1" vertex="1">
          <mxGeometry x="-2140" y="550" width="120" height="80" as="geometry" />
        </mxCell>
        <mxCell id="QJltSQwK1lFXKoooa8Jk-47" value="Installer client" style="text;html=1;align=center;verticalAlign=middle;whiteSpace=wrap;rounded=0;fillColor=#A9C4EB;" parent="1" vertex="1">
          <mxGeometry x="-2110" y="575" width="60" height="30" as="geometry" />
        </mxCell>
        <mxCell id="QJltSQwK1lFXKoooa8Jk-48" value="" style="endArrow=none;html=1;rounded=0;entryX=0;entryY=0.5;entryDx=0;entryDy=0;fillColor=#A9C4EB;" parent="1" target="QJltSQwK1lFXKoooa8Jk-46" edge="1">
          <mxGeometry width="50" height="50" relative="1" as="geometry">
            <mxPoint x="-2280" y="625" as="sourcePoint" />
            <mxPoint x="-2230" y="575" as="targetPoint" />
          </mxGeometry>
        </mxCell>
        <mxCell id="QJltSQwK1lFXKoooa8Jk-49" value="" style="ellipse;whiteSpace=wrap;html=1;fillColor=#A9C4EB;" parent="1" vertex="1">
          <mxGeometry x="-2190" y="660" width="120" height="80" as="geometry" />
        </mxCell>
        <mxCell id="QJltSQwK1lFXKoooa8Jk-50" value="dresser table" style="text;html=1;align=center;verticalAlign=middle;whiteSpace=wrap;rounded=0;fillColor=#A9C4EB;" parent="1" vertex="1">
          <mxGeometry x="-2160" y="685" width="60" height="30" as="geometry" />
        </mxCell>
        <mxCell id="QJltSQwK1lFXKoooa8Jk-51" value="" style="endArrow=none;html=1;rounded=0;entryX=0.007;entryY=0.283;entryDx=0;entryDy=0;entryPerimeter=0;fillColor=#A9C4EB;" parent="1" source="QJltSQwK1lFXKoooa8Jk-40" target="QJltSQwK1lFXKoooa8Jk-49" edge="1">
          <mxGeometry width="50" height="50" relative="1" as="geometry">
            <mxPoint x="-2279" y="690" as="sourcePoint" />
            <mxPoint x="-2208.289321881345" y="640" as="targetPoint" />
          </mxGeometry>
        </mxCell>
        <mxCell id="QJltSQwK1lFXKoooa8Jk-52" value="" style="ellipse;whiteSpace=wrap;html=1;fillColor=#A9C4EB;" parent="1" vertex="1">
          <mxGeometry x="-1500" y="385" width="120" height="80" as="geometry" />
        </mxCell>
        <mxCell id="QJltSQwK1lFXKoooa8Jk-53" value="suit chef de rang" style="text;html=1;align=center;verticalAlign=middle;whiteSpace=wrap;rounded=0;fillColor=#A9C4EB;" parent="1" vertex="1">
          <mxGeometry x="-1470" y="410" width="60" height="30" as="geometry" />
        </mxCell>
        <mxCell id="QJltSQwK1lFXKoooa8Jk-54" value="" style="endArrow=none;html=1;rounded=0;exitX=0.621;exitY=0.028;exitDx=0;exitDy=0;exitPerimeter=0;fillColor=#A9C4EB;" parent="1" source="QJltSQwK1lFXKoooa8Jk-52" edge="1">
          <mxGeometry width="50" height="50" relative="1" as="geometry">
            <mxPoint x="-1340" y="315" as="sourcePoint" />
            <mxPoint x="-1290" y="265" as="targetPoint" />
          </mxGeometry>
        </mxCell>
        <mxCell id="QJltSQwK1lFXKoooa8Jk-55" value="" style="ellipse;whiteSpace=wrap;html=1;fillColor=#A9C4EB;" parent="1" vertex="1">
          <mxGeometry x="-1400" y="540" width="120" height="80" as="geometry" />
        </mxCell>
        <mxCell id="QJltSQwK1lFXKoooa8Jk-56" value="Commander" style="text;html=1;align=center;verticalAlign=middle;whiteSpace=wrap;rounded=0;fillColor=#A9C4EB;" parent="1" vertex="1">
          <mxGeometry x="-1370" y="565" width="60" height="30" as="geometry" />
        </mxCell>
        <mxCell id="QJltSQwK1lFXKoooa8Jk-57" value="" style="endArrow=none;html=1;rounded=0;exitX=0.401;exitY=-0.043;exitDx=0;exitDy=0;exitPerimeter=0;fillColor=#A9C4EB;" parent="1" source="QJltSQwK1lFXKoooa8Jk-55" edge="1">
          <mxGeometry width="50" height="50" relative="1" as="geometry">
            <mxPoint x="-1310" y="321" as="sourcePoint" />
            <mxPoint x="-1260" y="271" as="targetPoint" />
          </mxGeometry>
        </mxCell>
        <mxCell id="QJltSQwK1lFXKoooa8Jk-58" value="Commande" style="text;html=1;align=center;verticalAlign=middle;whiteSpace=wrap;rounded=0;fillColor=#FFFFFF;" parent="1" vertex="1">
          <mxGeometry x="-1330" y="371" width="60" height="30" as="geometry" />
        </mxCell>
        <mxCell id="QJltSQwK1lFXKoooa8Jk-59" value="" style="endArrow=none;html=1;rounded=0;entryX=0;entryY=0.5;entryDx=0;entryDy=0;fillColor=#A9C4EB;" parent="1" target="QJltSQwK1lFXKoooa8Jk-55" edge="1">
          <mxGeometry width="50" height="50" relative="1" as="geometry">
            <mxPoint x="-2260" y="640" as="sourcePoint" />
            <mxPoint x="-1910" y="560" as="targetPoint" />
          </mxGeometry>
        </mxCell>
        <mxCell id="QJltSQwK1lFXKoooa8Jk-60" value="Prise de la commande" style="text;html=1;align=center;verticalAlign=middle;whiteSpace=wrap;rounded=0;fillColor=#FFFFFF;" parent="1" vertex="1">
          <mxGeometry x="-1890" y="580" width="60" height="30" as="geometry" />
        </mxCell>
        <mxCell id="QJltSQwK1lFXKoooa8Jk-61" value="&amp;lt;&amp;lt;Include&amp;gt;&amp;gt;" style="text;html=1;align=center;verticalAlign=middle;resizable=0;points=[];autosize=1;strokeColor=none;fillColor=#FFFFFF;" parent="1" vertex="1">
          <mxGeometry x="-2070" y="460" width="90" height="30" as="geometry" />
        </mxCell>
        <mxCell id="QJltSQwK1lFXKoooa8Jk-63" value="" style="endArrow=classic;html=1;rounded=0;exitX=1;exitY=0.5;exitDx=0;exitDy=0;dashed=1;fillColor=#A9C4EB;" parent="1" edge="1">
          <mxGeometry width="50" height="50" relative="1" as="geometry">
            <mxPoint x="-2080" y="489" as="sourcePoint" />
            <mxPoint x="-1970" y="489" as="targetPoint" />
          </mxGeometry>
        </mxCell>
        <mxCell id="QJltSQwK1lFXKoooa8Jk-64" value="Serveur" style="shape=umlActor;verticalLabelPosition=bottom;verticalAlign=top;html=1;outlineConnect=0;fillColor=#A9C4EB;" parent="1" vertex="1">
          <mxGeometry x="-2300" y="880" width="30" height="60" as="geometry" />
        </mxCell>
        <mxCell id="QJltSQwK1lFXKoooa8Jk-65" value="" style="ellipse;whiteSpace=wrap;html=1;fillColor=#A9C4EB;" parent="1" vertex="1">
          <mxGeometry x="-2120" y="770" width="120" height="80" as="geometry" />
        </mxCell>
        <mxCell id="QJltSQwK1lFXKoooa8Jk-66" value="" style="endArrow=none;html=1;rounded=0;exitX=0.5;exitY=0.5;exitDx=0;exitDy=0;exitPerimeter=0;entryX=0;entryY=0.5;entryDx=0;entryDy=0;fillColor=#A9C4EB;" parent="1" source="QJltSQwK1lFXKoooa8Jk-64" target="QJltSQwK1lFXKoooa8Jk-65" edge="1">
          <mxGeometry width="50" height="50" relative="1" as="geometry">
            <mxPoint x="-2160" y="620" as="sourcePoint" />
            <mxPoint x="-2110" y="570" as="targetPoint" />
          </mxGeometry>
        </mxCell>
        <mxCell id="QJltSQwK1lFXKoooa8Jk-67" value="Débarasser table" style="text;html=1;align=center;verticalAlign=middle;whiteSpace=wrap;rounded=0;fillColor=#A9C4EB;" parent="1" vertex="1">
          <mxGeometry x="-2090" y="795" width="60" height="30" as="geometry" />
        </mxCell>
        <mxCell id="QJltSQwK1lFXKoooa8Jk-68" value="" style="ellipse;whiteSpace=wrap;html=1;fillColor=#A9C4EB;" parent="1" vertex="1">
          <mxGeometry x="-1229" y="630" width="120" height="80" as="geometry" />
        </mxCell>
        <mxCell id="QJltSQwK1lFXKoooa8Jk-69" value="Demande client" style="text;html=1;align=center;verticalAlign=middle;whiteSpace=wrap;rounded=0;fillColor=#A9C4EB;" parent="1" vertex="1">
          <mxGeometry x="-1199" y="650" width="60" height="30" as="geometry" />
        </mxCell>
        <mxCell id="QJltSQwK1lFXKoooa8Jk-70" value="" style="endArrow=none;html=1;rounded=0;exitX=0.383;exitY=0.005;exitDx=0;exitDy=0;exitPerimeter=0;fillColor=#A9C4EB;" parent="1" source="QJltSQwK1lFXKoooa8Jk-68" edge="1">
          <mxGeometry width="50" height="50" relative="1" as="geometry">
            <mxPoint x="-1190" y="620" as="sourcePoint" />
            <mxPoint x="-1240" y="280" as="targetPoint" />
          </mxGeometry>
        </mxCell>
        <mxCell id="QJltSQwK1lFXKoooa8Jk-71" value="Sollicitation" style="text;html=1;align=center;verticalAlign=middle;whiteSpace=wrap;rounded=0;fillColor=#FFFFFF;" parent="1" vertex="1">
          <mxGeometry x="-1240" y="411" width="60" height="30" as="geometry" />
        </mxCell>
        <mxCell id="QJltSQwK1lFXKoooa8Jk-72" value="" style="endArrow=none;html=1;rounded=0;exitX=1;exitY=1;exitDx=0;exitDy=0;exitPerimeter=0;entryX=0.65;entryY=1.005;entryDx=0;entryDy=0;entryPerimeter=0;fillColor=#A9C4EB;" parent="1" source="QJltSQwK1lFXKoooa8Jk-64" target="QJltSQwK1lFXKoooa8Jk-68" edge="1">
          <mxGeometry width="50" height="50" relative="1" as="geometry">
            <mxPoint x="-2070" y="940" as="sourcePoint" />
            <mxPoint x="-1760" y="790" as="targetPoint" />
          </mxGeometry>
        </mxCell>
        <mxCell id="QJltSQwK1lFXKoooa8Jk-73" value="Répondre" style="text;html=1;align=center;verticalAlign=middle;whiteSpace=wrap;rounded=0;fillColor=#FFFFFF;" parent="1" vertex="1">
          <mxGeometry x="-1570" y="780" width="60" height="30" as="geometry" />
        </mxCell>
        <mxCell id="QJltSQwK1lFXKoooa8Jk-74" value="" style="ellipse;whiteSpace=wrap;html=1;fillColor=#A9C4EB;" parent="1" vertex="1">
          <mxGeometry x="-2120" y="1010" width="120" height="80" as="geometry" />
        </mxCell>
        <mxCell id="QJltSQwK1lFXKoooa8Jk-75" value="Servir plats" style="text;html=1;align=center;verticalAlign=middle;whiteSpace=wrap;rounded=0;fillColor=#A9C4EB;" parent="1" vertex="1">
          <mxGeometry x="-2090" y="1035" width="60" height="30" as="geometry" />
        </mxCell>
        <mxCell id="QJltSQwK1lFXKoooa8Jk-76" value="" style="endArrow=none;html=1;rounded=0;exitX=1;exitY=1;exitDx=0;exitDy=0;exitPerimeter=0;entryX=0;entryY=0;entryDx=0;entryDy=0;fillColor=#A9C4EB;" parent="1" source="QJltSQwK1lFXKoooa8Jk-64" target="QJltSQwK1lFXKoooa8Jk-74" edge="1">
          <mxGeometry width="50" height="50" relative="1" as="geometry">
            <mxPoint x="-2240" y="1040" as="sourcePoint" />
            <mxPoint x="-2190" y="990" as="targetPoint" />
          </mxGeometry>
        </mxCell>
        <mxCell id="QJltSQwK1lFXKoooa8Jk-77" value="Commis de salle" style="shape=umlActor;verticalLabelPosition=bottom;verticalAlign=top;html=1;outlineConnect=0;fillColor=#A9C4EB;" parent="1" vertex="1">
          <mxGeometry x="-1090" y="795" width="30" height="60" as="geometry" />
        </mxCell>
        <mxCell id="QJltSQwK1lFXKoooa8Jk-78" value="" style="ellipse;whiteSpace=wrap;html=1;fillColor=#A9C4EB;" parent="1" vertex="1">
          <mxGeometry x="-1270" y="780" width="120" height="80" as="geometry" />
        </mxCell>
        <mxCell id="QJltSQwK1lFXKoooa8Jk-79" value="Assister serveur" style="text;html=1;align=center;verticalAlign=middle;whiteSpace=wrap;rounded=0;fillColor=#A9C4EB;" parent="1" vertex="1">
          <mxGeometry x="-1240" y="805" width="60" height="30" as="geometry" />
        </mxCell>
        <mxCell id="QJltSQwK1lFXKoooa8Jk-80" value="" style="endArrow=none;html=1;rounded=0;entryX=0;entryY=0.3333333333333333;entryDx=0;entryDy=0;entryPerimeter=0;exitX=1;exitY=0.5;exitDx=0;exitDy=0;fillColor=#A9C4EB;" parent="1" source="QJltSQwK1lFXKoooa8Jk-78" target="QJltSQwK1lFXKoooa8Jk-77" edge="1">
          <mxGeometry width="50" height="50" relative="1" as="geometry">
            <mxPoint x="-1150" y="890" as="sourcePoint" />
            <mxPoint x="-1100" y="840" as="targetPoint" />
          </mxGeometry>
        </mxCell>
        <mxCell id="QJltSQwK1lFXKoooa8Jk-81" value="" style="ellipse;whiteSpace=wrap;html=1;fillColor=#A9C4EB;" parent="1" vertex="1">
          <mxGeometry x="-1340" y="890" width="120" height="80" as="geometry" />
        </mxCell>
        <mxCell id="QJltSQwK1lFXKoooa8Jk-82" value="Apporter Pain/eau" style="text;html=1;align=center;verticalAlign=middle;whiteSpace=wrap;rounded=0;fillColor=#A9C4EB;" parent="1" vertex="1">
          <mxGeometry x="-1310" y="910" width="60" height="30" as="geometry" />
        </mxCell>
        <mxCell id="QJltSQwK1lFXKoooa8Jk-83" value="" style="endArrow=none;html=1;rounded=0;exitX=1;exitY=0.5;exitDx=0;exitDy=0;fillColor=#A9C4EB;" parent="1" source="QJltSQwK1lFXKoooa8Jk-81" edge="1">
          <mxGeometry width="50" height="50" relative="1" as="geometry">
            <mxPoint x="-1130" y="890" as="sourcePoint" />
            <mxPoint x="-1080" y="840" as="targetPoint" />
          </mxGeometry>
        </mxCell>
      </root>
    </mxGraphModel>
  </diagram>
</mxfile>
